<svg xmlns="http://www.w3.org/2000/svg" width="255" height="37" viewBox="0 0 255 37">
  <g fill="none" fill-rule="evenodd" transform="translate(-1)">
    <g transform="translate(1)">
      <path fill="#F36335" d="M42.2710134,32.370319 L42.2710134,29.0832178 L40.9402985,29.0832178 L40.9402985,32.4202497 C40.9402985,33.3439667 40.4477612,33.8183079 39.6355067,33.8183079 C38.8232522,33.8183079 38.3307148,33.3273232 38.3307148,32.3786408 L38.3307148,29.0832178 L37,29.0832178 L37,32.4119279 C37,34.1262136 37.9937156,35 39.6182247,35 C41.2427337,35 42.2710134,34.1345354 42.2710134,32.370319 Z M48,33.185853 L48,33.1692094 C48,32.1539528 47.3087196,31.7295423 46.0816968,31.4216366 C45.0361351,31.1636616 44.7769049,31.038835 44.7769049,30.6560333 L44.7769049,30.6393897 C44.7769049,30.3564494 45.0447761,30.1317614 45.5545954,30.1317614 C46.0644148,30.1317614 46.5915161,30.3481276 47.1272584,30.7059639 L47.8185389,29.740638 C47.2050275,29.2662968 46.45326,29 45.5718775,29 C44.3362137,29 43.4548311,29.6990291 43.4548311,30.7558946 L43.4548311,30.7725381 C43.4548311,31.9292649 44.2411626,32.2538141 45.4595444,32.5533981 C46.470542,32.8030513 46.6779262,32.9694868 46.6779262,33.2940361 L46.6779262,33.3106796 C46.6779262,33.6518724 46.3495679,33.8599168 45.8051846,33.8599168 C45.1139042,33.8599168 44.5435978,33.5852982 43.9992145,33.1525659 L43.212883,34.0596394 C43.9387274,34.6837725 44.863315,34.9916782 45.7792616,34.9916782 C47.0840534,34.9916782 48,34.3425798 48,33.185853 Z"/>
      <g fill-rule="nonzero" transform="translate(.246 .623)">
        <polygon fill="#002C6C" points="43.445 22.773 43.445 21.57 41.218 21.57 41.218 12.421 40.135 12.421 37.186 13.625 37.487 14.948 39.774 14.046 39.774 21.569 37.245 21.569 37.245 22.773 43.445 22.773"/>
        <path fill="#002C6C" d="M35.8614098,17.8375738 C35.8614098,27.6478033 27.8564918,35.5916721 17.987082,35.5916721 C8.11642623,35.5916721 0.111508197,27.6478033 0.111508197,17.8375738 C0.171311475,8.02734426 8.11704918,0.0834754098 17.987082,0.0834754098 C27.8571148,0.0834754098 35.8614098,8.02734426 35.8614098,17.8375738 Z"/>
        <path fill="#FFF" d="M21.6581311 12.4820656C19.0105902 12.4820656 17.023377 14.6486885 17.023377 17.5977377L17.023377 17.7179672C17.023377 20.786623 18.8903607 22.8336393 21.5977049 22.8336393 23.1021311 22.8336393 24.2464918 22.2312459 24.9678689 21.6886557L24.9678689 17.2962295 21.5372787 17.2962295 21.5372787 18.379541 23.7637049 18.379541 23.7637049 20.9672787 23.7032787 21.0277049C23.1619344 21.3883934 22.4405574 21.6288525 21.7179344 21.6288525 19.7313443 21.6288525 18.467377 20.064623 18.467377 17.657541L18.467377 17.5977377C18.467377 15.3706885 19.7917705 13.6856066 21.6575082 13.6856066 22.7408197 13.6856066 23.4030164 14.0462951 23.9443607 14.5278361L24.7280328 13.5055738C23.7637049 12.7829508 22.8616721 12.4820656 21.6581311 12.4820656zM26.8940328 21.4494426C27.917541 22.3508525 29.120459 22.7732131 30.3850492 22.7732131 32.3112131 22.7732131 33.5739344 21.6288525 33.5739344 19.9437705 33.5739344 18.5601967 32.8525574 17.7777705 30.8665902 17.0557705 29.0612787 16.3331475 28.5791148 15.9126557 28.5791148 15.0698033 28.5791148 14.2269508 29.3017377 13.6251803 30.3252459 13.6251803 31.0478689 13.6251803 31.8278033 13.9260656 32.6108525 14.5278361L33.3945246 13.5055738C32.5516721 12.7829508 31.5281639 12.4216393 30.3850492 12.4216393 28.5193115 12.4216393 27.2559672 13.5647541 27.2559672 15.1296066 27.2559672 16.7548852 28.2788525 17.417082 30.1458361 18.138459 31.768623 18.7408525 32.3118361 19.1625902 32.3118361 20.0060656 32.3118361 20.9080984 31.5287869 21.5702951 30.4467213 21.5702951 29.2425574 21.5702951 28.3405246 20.9679016 27.7381311 20.4265574L26.8940328 21.4494426z"/>
        <path fill="#002C6C" d="M31.6496393,3.15337705 C31.6496393,2.19091803 32.4301967,1.40786885 33.3945246,1.40786885 C34.3576066,1.40786885 35.1394098,2.19091803 35.1394098,3.15337705 C35.1394098,4.11583607 34.3576066,4.8982623 33.3945246,4.8982623 C32.4301967,4.8982623 31.6496393,4.11583607 31.6496393,3.15337705 Z M34.7780984,3.15337705 C34.7780984,2.37095082 34.1757049,1.76855738 33.3939016,1.76855738 C32.6102295,1.76855738 32.009082,2.37032787 32.009082,3.15337705 C32.009082,3.93518033 32.6102295,4.53757377 33.3939016,4.53757377 C34.1757049,4.53757377 34.7780984,3.93518033 34.7780984,3.15337705 Z M32.731082,2.30990164 L33.5141311,2.30990164 C33.8748197,2.30990164 34.1757049,2.49055738 34.1757049,2.85186885 C34.1757049,3.09295082 34.0560984,3.27298361 33.8150164,3.39383607 L34.2355082,3.99560656 L33.7552131,3.99560656 L33.3945246,3.4542623 L33.1534426,3.4542623 L33.1534426,3.99560656 L32.731082,3.99560656 L32.731082,2.30990164 Z M33.5141311,3.09295082 C33.6954098,3.09295082 33.8150164,2.97272131 33.8150164,2.85186885 C33.8150164,2.73101639 33.6954098,2.61078689 33.5141311,2.61078689 L33.1534426,2.61078689 L33.1534426,3.09232787 L33.5141311,3.09232787 L33.5141311,3.09295082 Z"/>
        <g fill="#FFF" transform="translate(1.869 1.869)">
          <path d="M1.91370492,15.9687213 C1.91370492,7.84419672 8.17311475,1.22409836 16.1786557,0.561901639 L16.1786557,0.50147541 C7.57134426,0.50147541 0.589934426,7.42245902 0.589934426,15.9687213 C0.589934426,24.5156066 7.57134426,31.4365902 16.1182295,31.4365902 L16.1182295,31.3767869 C8.17311475,30.7139672 1.91370492,24.0334426 1.91370492,15.9687213 Z"/>
          <path d="M5.40472131,15.9687213 C5.40472131,9.16796721 10.5808197,3.57137705 17.2607213,2.90918033 L17.200918,2.8487541 C10.0388525,2.96898361 4.20118033,8.80727869 4.20118033,15.9687213 C4.20118033,23.1314098 9.97842623,28.9697049 17.200918,29.0893115 L17.2607213,29.0295082 C10.5801967,28.3062623 5.40472131,22.7700984 5.40472131,15.9687213 Z"/>
          <path d="M8.71508197,15.9687213 C8.71508197,10.4325574 12.9280984,5.85822951 18.3446557,5.19665574 L18.2842295,5.13622951 C12.3855082,5.31688525 7.69219672,10.0712459 7.69219672,15.9687213 C7.69219672,21.8674426 12.3855082,26.6224262 18.2842295,26.802459 L18.3446557,26.7414098 C12.9274754,26.0798361 8.71508197,21.5061311 8.71508197,15.9687213 Z"/>
          <path d="M11.9052131,15.9687213 C11.9052131,11.6367213 15.1545246,8.02547541 19.4279672,7.54393443 L19.4279672,7.4835082 C14.7938361,7.6037377 11.1227869,11.3358361 11.1227869,15.9693443 C11.1227869,20.6034754 14.8536393,24.3355738 19.4279672,24.4564262 L19.4279672,24.3947541 C15.2155738,23.8534098 11.9052131,20.3032131 11.9052131,15.9687213 Z"/>
        </g>
      </g>
      <path fill="#002D6C" d="M65.514 26.204C64.5506618 26.204 63.669504 26.0453349 62.8705 25.728 62.071496 25.4106651 61.3886695 24.9686695 60.822 24.402 60.2553305 23.8353305 59.8133349 23.1638372 59.496 22.3875 59.1786651 21.6111628 59.02 20.7640046 59.02 19.846L59.02 19.812C59.02 18.939329 59.1814984 18.1148372 59.5045 17.3385 59.8275016 16.5621628 60.2751638 15.8850029 60.8475 15.307 61.4198362 14.7289971 62.1026627 14.2700017 62.896 13.93 63.6893373 13.5899983 64.5563286 13.42 65.497 13.42 66.0523361 13.42 66.5566644 13.456833 67.01 13.5305 67.4633356 13.604167 67.8826647 13.7118326 68.268 13.8535 68.6533353 13.9951674 69.013165 14.1708323 69.3475 14.3805 69.681835 14.5901677 70.0133317 14.8309986 70.342 15.103L68.693 17.092C68.4549988 16.887999 68.2170012 16.7095008 67.979 16.5565 67.7409988 16.4034992 67.491668 16.2703339 67.231 16.157 66.970332 16.0436661 66.6926681 15.9586669 66.398 15.902 66.1033319 15.845333 65.7746685 15.817 65.412 15.817 64.9019974 15.817 64.4260022 15.9218323 63.984 16.1315 63.5419978 16.3411677 63.153835 16.6273315 62.8195 16.99 62.485165 17.3526685 62.2245009 17.7719976 62.0375 18.248 61.8504991 18.7240024 61.757 19.2339973 61.757 19.778L61.757 19.812C61.757 20.3900029 61.8504991 20.9254975 62.0375 21.4185 62.2245009 21.9115025 62.4879983 22.3364982 62.828 22.6935 63.1680017 23.0505018 63.5731643 23.330999 64.0435 23.535 64.5138357 23.739001 65.0323305 23.841 65.599 23.841 66.6416719 23.841 67.525663 23.5803359 68.251 23.059L68.251 21.172 65.429 21.172 65.429 18.911 70.784 18.911 70.784 24.249C70.1379968 24.7930027 69.3815043 25.2548314 68.5145 25.6345 67.6474957 26.0141686 66.647339 26.204 65.514 26.204zM78.018 26.17C77.0659952 26.17 76.1423378 26.0085016 75.247 25.6855 74.3516622 25.3624984 73.5300037 24.86667 72.782 24.198L74.329 22.345C74.8956695 22.8210024 75.4793303 23.1949986 76.08 23.467 76.6806697 23.7390014 77.343663 23.875 78.069 23.875 78.6470029 23.875 79.103165 23.7616678 79.4375 23.535 79.771835 23.3083322 79.939 23.0023353 79.939 22.617L79.939 22.583C79.939 22.4016658 79.9050003 22.2401674 79.837 22.0985 79.7689997 21.9568326 79.6415009 21.820834 79.4545 21.6905 79.2674991 21.560166 79.006835 21.4383339 78.6725 21.325 78.338165 21.2116661 77.9103359 21.0870007 77.389 20.951 76.7543302 20.7923325 76.1848359 20.6223342 75.6805 20.441 75.1761641 20.2596658 74.7455018 20.0273347 74.3885 19.744 74.0314982 19.4606652 73.7566676 19.115002 73.564 18.707 73.3713324 18.298998 73.275 17.7890031 73.275 17.177L73.275 17.143C73.275 16.5876639 73.3826656 16.0833356 73.598 15.63 73.8133344 15.1766644 74.1108314 14.7885016 74.4905 14.4655 74.8701686 14.1424984 75.3234974 13.8931675 75.8505 13.7175 76.3775026 13.5418325 76.9583302 13.454 77.593 13.454 78.4996712 13.454 79.3298296 13.5871653 80.0835 13.8535 80.8371704 14.1198347 81.5313302 14.5079974 82.166 15.018L80.789 16.99C80.2449973 16.5933313 79.703836 16.2873344 79.1655 16.072 78.627164 15.8566656 78.0860027 15.749 77.542 15.749 76.9979973 15.749 76.5843347 15.8623322 76.301 16.089 76.0176652 16.3156678 75.876 16.5876651 75.876 16.905L75.876 16.939C75.876 17.1543344 75.9156663 17.3356659 75.995 17.483 76.0743337 17.6303341 76.215999 17.7663327 76.42 17.891 76.624001 18.0156673 76.9016649 18.1374994 77.253 18.2565 77.6043351 18.3755006 78.0519973 18.5029993 78.596 18.639 79.2306698 18.7976675 79.7916642 18.978999 80.279 19.183 80.7663358 19.387001 81.177165 19.6334986 81.5115 19.9225 81.845835 20.2115014 82.1008325 20.551498 82.2765 20.9425 82.4521675 21.333502 82.54 21.7953307 82.54 22.328L82.54 22.362C82.54 22.9740031 82.4295011 23.5151643 82.2085 23.9855 81.9874989 24.4558357 81.6758353 24.8524984 81.2735 25.1755 80.8711647 25.4985016 80.3923361 25.7449991 79.837 25.915 79.2816639 26.0850008 78.6753366 26.17 78.018 26.17zM84.912 26L84.912 23.892 88.159 23.892 88.159 16.191 85.303 17.245 84.691 15.12 88.89 13.539 90.641 13.539 90.641 23.892 93.548 23.892 93.548 26 84.912 26zM104.715 26.187C103.887663 26.187 103.145337 26.0708345 102.488 25.8385 101.830663 25.6061655 101.272502 25.2605023 100.8135 24.8015 100.354498 24.3424977 100.000335 23.7730034 99.751 23.093 99.5016654 22.4129966 99.377 21.6196712 99.377 20.713L99.377 13.624 101.995 13.624 101.995 20.628C101.995 21.6706719 102.238664 22.4583307 102.726 22.991 103.213336 23.5236693 103.887662 23.79 104.749 23.79 105.610338 23.79 106.287498 23.5350026 106.7805 23.025 107.273502 22.5149975 107.52 21.7500051 107.52 20.73L107.52 13.624 110.121 13.624 110.121 20.611C110.121 21.5516714 109.993501 22.3704965 109.7385 23.0675 109.483499 23.7645035 109.123669 24.3424977 108.659 24.8015 108.194331 25.2605023 107.62767 25.6061655 106.959 25.8385 106.29033 26.0708345 105.542337 26.187 104.715 26.187zM117.525 26.17C116.572995 26.17 115.649338 26.0085016 114.754 25.6855 113.858662 25.3624984 113.037004 24.86667 112.289 24.198L113.836 22.345C114.402669 22.8210024 114.98633 23.1949986 115.587 23.467 116.18767 23.7390014 116.850663 23.875 117.576 23.875 118.154003 23.875 118.610165 23.7616678 118.9445 23.535 119.278835 23.3083322 119.446 23.0023353 119.446 22.617L119.446 22.583C119.446 22.4016658 119.412 22.2401674 119.344 22.0985 119.276 21.9568326 119.148501 21.820834 118.9615 21.6905 118.774499 21.560166 118.513835 21.4383339 118.1795 21.325 117.845165 21.2116661 117.417336 21.0870007 116.896 20.951 116.26133 20.7923325 115.691836 20.6223342 115.1875 20.441 114.683164 20.2596658 114.252502 20.0273348 113.8955 19.744 113.538498 19.4606652 113.263668 19.115002 113.071 18.707 112.878332 18.298998 112.782 17.7890031 112.782 17.177L112.782 17.143C112.782 16.5876639 112.889666 16.0833356 113.105 15.63 113.320334 15.1766644 113.617831 14.7885016 113.9975 14.4655 114.377169 14.1424984 114.830497 13.8931675 115.3575 13.7175 115.884503 13.5418325 116.46533 13.454 117.1 13.454 118.006671 13.454 118.83683 13.5871653 119.5905 13.8535 120.34417 14.1198347 121.03833 14.5079974 121.673 15.018L120.296 16.99C119.751997 16.5933313 119.210836 16.2873344 118.6725 16.072 118.134164 15.8566656 117.593003 15.749 117.049 15.749 116.504997 15.749 116.091335 15.8623322 115.808 16.089 115.524665 16.3156678 115.383 16.5876651 115.383 16.905L115.383 16.939C115.383 17.1543344 115.422666 17.3356659 115.502 17.483 115.581334 17.6303341 115.722999 17.7663327 115.927 17.891 116.131001 18.0156673 116.408665 18.1374994 116.76 18.2565 117.111335 18.3755006 117.558997 18.5029993 118.103 18.639 118.73767 18.7976675 119.298664 18.978999 119.786 19.183 120.273336 19.387001 120.684165 19.6334986 121.0185 19.9225 121.352835 20.2115014 121.607832 20.551498 121.7835 20.9425 121.959168 21.333502 122.047 21.7953307 122.047 22.328L122.047 22.362C122.047 22.9740031 121.936501 23.5151643 121.7155 23.9855 121.494499 24.4558357 121.182835 24.8524984 120.7805 25.1755 120.378165 25.4985016 119.899336 25.7449991 119.344 25.915 118.788664 26.0850009 118.182337 26.17 117.525 26.17z"/>
    </g>   
    
  </g>
</svg>
