<svg xmlns="http://www.w3.org/2000/svg" width="236" height="37" viewBox="0 0 236 37">
  <g fill="none" fill-rule="evenodd" transform="translate(-1)">
    <g transform="translate(1)">
      <path fill="#F36335" d="M42.2710134,32.370319 L42.2710134,29.0832178 L40.9402985,29.0832178 L40.9402985,32.4202497 C40.9402985,33.3439667 40.4477612,33.8183079 39.6355067,33.8183079 C38.8232522,33.8183079 38.3307148,33.3273232 38.3307148,32.3786408 L38.3307148,29.0832178 L37,29.0832178 L37,32.4119279 C37,34.1262136 37.9937156,35 39.6182247,35 C41.2427337,35 42.2710134,34.1345354 42.2710134,32.370319 Z M48,33.185853 L48,33.1692094 C48,32.1539528 47.3087196,31.7295423 46.0816968,31.4216366 C45.0361351,31.1636616 44.7769049,31.038835 44.7769049,30.6560333 L44.7769049,30.6393897 C44.7769049,30.3564494 45.0447761,30.1317614 45.5545954,30.1317614 C46.0644148,30.1317614 46.5915161,30.3481276 47.1272584,30.7059639 L47.8185389,29.740638 C47.2050275,29.2662968 46.45326,29 45.5718775,29 C44.3362137,29 43.4548311,29.6990291 43.4548311,30.7558946 L43.4548311,30.7725381 C43.4548311,31.9292649 44.2411626,32.2538141 45.4595444,32.5533981 C46.470542,32.8030513 46.6779262,32.9694868 46.6779262,33.2940361 L46.6779262,33.3106796 C46.6779262,33.6518724 46.3495679,33.8599168 45.8051846,33.8599168 C45.1139042,33.8599168 44.5435978,33.5852982 43.9992145,33.1525659 L43.212883,34.0596394 C43.9387274,34.6837725 44.863315,34.9916782 45.7792616,34.9916782 C47.0840534,34.9916782 48,34.3425798 48,33.185853 Z"/>
      <g fill-rule="nonzero" transform="translate(.246 .623)">
        <polygon fill="#002C6C" points="43.445 22.773 43.445 21.57 41.218 21.57 41.218 12.421 40.135 12.421 37.186 13.625 37.487 14.948 39.774 14.046 39.774 21.569 37.245 21.569 37.245 22.773 43.445 22.773"/>
        <path fill="#002C6C" d="M35.8614098,17.8375738 C35.8614098,27.6478033 27.8564918,35.5916721 17.987082,35.5916721 C8.11642623,35.5916721 0.111508197,27.6478033 0.111508197,17.8375738 C0.171311475,8.02734426 8.11704918,0.0834754098 17.987082,0.0834754098 C27.8571148,0.0834754098 35.8614098,8.02734426 35.8614098,17.8375738 Z"/>
        <path fill="#FFF" d="M21.6581311 12.4820656C19.0105902 12.4820656 17.023377 14.6486885 17.023377 17.5977377L17.023377 17.7179672C17.023377 20.786623 18.8903607 22.8336393 21.5977049 22.8336393 23.1021311 22.8336393 24.2464918 22.2312459 24.9678689 21.6886557L24.9678689 17.2962295 21.5372787 17.2962295 21.5372787 18.379541 23.7637049 18.379541 23.7637049 20.9672787 23.7032787 21.0277049C23.1619344 21.3883934 22.4405574 21.6288525 21.7179344 21.6288525 19.7313443 21.6288525 18.467377 20.064623 18.467377 17.657541L18.467377 17.5977377C18.467377 15.3706885 19.7917705 13.6856066 21.6575082 13.6856066 22.7408197 13.6856066 23.4030164 14.0462951 23.9443607 14.5278361L24.7280328 13.5055738C23.7637049 12.7829508 22.8616721 12.4820656 21.6581311 12.4820656zM26.8940328 21.4494426C27.917541 22.3508525 29.120459 22.7732131 30.3850492 22.7732131 32.3112131 22.7732131 33.5739344 21.6288525 33.5739344 19.9437705 33.5739344 18.5601967 32.8525574 17.7777705 30.8665902 17.0557705 29.0612787 16.3331475 28.5791148 15.9126557 28.5791148 15.0698033 28.5791148 14.2269508 29.3017377 13.6251803 30.3252459 13.6251803 31.0478689 13.6251803 31.8278033 13.9260656 32.6108525 14.5278361L33.3945246 13.5055738C32.5516721 12.7829508 31.5281639 12.4216393 30.3850492 12.4216393 28.5193115 12.4216393 27.2559672 13.5647541 27.2559672 15.1296066 27.2559672 16.7548852 28.2788525 17.417082 30.1458361 18.138459 31.768623 18.7408525 32.3118361 19.1625902 32.3118361 20.0060656 32.3118361 20.9080984 31.5287869 21.5702951 30.4467213 21.5702951 29.2425574 21.5702951 28.3405246 20.9679016 27.7381311 20.4265574L26.8940328 21.4494426z"/>
        <path fill="#002C6C" d="M31.6496393,3.15337705 L31.6496393,3.15337705 C31.6496393,2.19091803 32.4301967,1.40786885 33.3945246,1.40786885 C34.3576066,1.40786885 35.1394098,2.19091803 35.1394098,3.15337705 L35.1394098,3.15337705 C35.1394098,4.11583607 34.3576066,4.8982623 33.3945246,4.8982623 C32.4301967,4.8982623 31.6496393,4.11583607 31.6496393,3.15337705 Z M34.7780984,3.15337705 L34.7780984,3.15337705 C34.7780984,2.37095082 34.1757049,1.76855738 33.3939016,1.76855738 C32.6102295,1.76855738 32.009082,2.37032787 32.009082,3.15337705 L32.009082,3.15337705 C32.009082,3.93518033 32.6102295,4.53757377 33.3939016,4.53757377 C34.1757049,4.53757377 34.7780984,3.93518033 34.7780984,3.15337705 Z M32.731082,2.30990164 L33.5141311,2.30990164 C33.8748197,2.30990164 34.1757049,2.49055738 34.1757049,2.85186885 C34.1757049,3.09295082 34.0560984,3.27298361 33.8150164,3.39383607 L34.2355082,3.99560656 L33.7552131,3.99560656 L33.3945246,3.4542623 L33.1534426,3.4542623 L33.1534426,3.99560656 L32.731082,3.99560656 L32.731082,2.30990164 Z M33.5141311,3.09295082 C33.6954098,3.09295082 33.8150164,2.97272131 33.8150164,2.85186885 C33.8150164,2.73101639 33.6954098,2.61078689 33.5141311,2.61078689 L33.1534426,2.61078689 L33.1534426,3.09232787 L33.5141311,3.09232787 L33.5141311,3.09295082 Z"/>
        <g fill="#FFF" transform="translate(1.869 1.869)">
          <path d="M1.91370492,15.9687213 C1.91370492,7.84419672 8.17311475,1.22409836 16.1786557,0.561901639 L16.1786557,0.50147541 L16.1786557,0.50147541 C7.57134426,0.50147541 0.589934426,7.42245902 0.589934426,15.9687213 C0.589934426,24.5156066 7.57134426,31.4365902 16.1182295,31.4365902 L16.1182295,31.4365902 L16.1182295,31.3767869 C8.17311475,30.7139672 1.91370492,24.0334426 1.91370492,15.9687213 Z"/>
          <path d="M5.40472131,15.9687213 C5.40472131,9.16796721 10.5808197,3.57137705 17.2607213,2.90918033 L17.200918,2.8487541 C10.0388525,2.96898361 4.20118033,8.80727869 4.20118033,15.9687213 C4.20118033,23.1314098 9.97842623,28.9697049 17.200918,29.0893115 L17.2607213,29.0295082 C10.5801967,28.3062623 5.40472131,22.7700984 5.40472131,15.9687213 Z"/>
          <path d="M8.71508197,15.9687213 C8.71508197,10.4325574 12.9280984,5.85822951 18.3446557,5.19665574 L18.2842295,5.13622951 C12.3855082,5.31688525 7.69219672,10.0712459 7.69219672,15.9687213 C7.69219672,21.8674426 12.3855082,26.6224262 18.2842295,26.802459 L18.3446557,26.7414098 C12.9274754,26.0798361 8.71508197,21.5061311 8.71508197,15.9687213 Z"/>
          <path d="M11.9052131,15.9687213 C11.9052131,11.6367213 15.1545246,8.02547541 19.4279672,7.54393443 L19.4279672,7.4835082 C14.7938361,7.6037377 11.1227869,11.3358361 11.1227869,15.9693443 C11.1227869,20.6034754 14.8536393,24.3355738 19.4279672,24.4564262 L19.4279672,24.3947541 C15.2155738,23.8534098 11.9052131,20.3032131 11.9052131,15.9687213 Z"/>
        </g>
      </g>
      <path fill="#002D6C" d="M65.514 26.204C64.5506618 26.204 63.669504 26.0453349 62.8705 25.728 62.071496 25.4106651 61.3886695 24.9686695 60.822 24.402 60.2553305 23.8353305 59.8133349 23.1638372 59.496 22.3875 59.1786651 21.6111628 59.02 20.7640046 59.02 19.846L59.02 19.812C59.02 18.939329 59.1814984 18.1148372 59.5045 17.3385 59.8275016 16.5621628 60.2751638 15.8850029 60.8475 15.307 61.4198362 14.7289971 62.1026627 14.2700017 62.896 13.93 63.6893373 13.5899983 64.5563286 13.42 65.497 13.42 66.0523361 13.42 66.5566644 13.456833 67.01 13.5305 67.4633356 13.604167 67.8826647 13.7118326 68.268 13.8535 68.6533353 13.9951674 69.013165 14.1708323 69.3475 14.3805 69.681835 14.5901677 70.0133317 14.8309986 70.342 15.103L68.693 17.092C68.4549988 16.887999 68.2170012 16.7095008 67.979 16.5565 67.7409988 16.4034992 67.491668 16.2703339 67.231 16.157 66.970332 16.0436661 66.6926681 15.9586669 66.398 15.902 66.1033319 15.845333 65.7746685 15.817 65.412 15.817 64.9019974 15.817 64.4260022 15.9218323 63.984 16.1315 63.5419978 16.3411677 63.153835 16.6273315 62.8195 16.99 62.485165 17.3526685 62.2245009 17.7719976 62.0375 18.248 61.8504991 18.7240024 61.757 19.2339973 61.757 19.778L61.757 19.812C61.757 20.3900029 61.8504991 20.9254975 62.0375 21.4185 62.2245009 21.9115025 62.4879983 22.3364982 62.828 22.6935 63.1680017 23.0505018 63.5731643 23.330999 64.0435 23.535 64.5138357 23.739001 65.0323305 23.841 65.599 23.841 66.6416719 23.841 67.525663 23.5803359 68.251 23.059L68.251 21.172 65.429 21.172 65.429 18.911 70.784 18.911 70.784 24.249C70.1379968 24.7930027 69.3815043 25.2548314 68.5145 25.6345 67.6474957 26.0141686 66.647339 26.204 65.514 26.204zM78.018 26.17C77.0659952 26.17 76.1423378 26.0085016 75.247 25.6855 74.3516622 25.3624984 73.5300037 24.86667 72.782 24.198L74.329 22.345C74.8956695 22.8210024 75.4793303 23.1949986 76.08 23.467 76.6806697 23.7390014 77.343663 23.875 78.069 23.875 78.6470029 23.875 79.103165 23.7616678 79.4375 23.535 79.771835 23.3083322 79.939 23.0023353 79.939 22.617L79.939 22.583C79.939 22.4016658 79.9050003 22.2401674 79.837 22.0985 79.7689997 21.9568326 79.6415009 21.820834 79.4545 21.6905 79.2674991 21.560166 79.006835 21.4383339 78.6725 21.325 78.338165 21.2116661 77.9103359 21.0870007 77.389 20.951 76.7543302 20.7923325 76.1848359 20.6223342 75.6805 20.441 75.1761641 20.2596658 74.7455018 20.0273347 74.3885 19.744 74.0314982 19.4606652 73.7566676 19.115002 73.564 18.707 73.3713324 18.298998 73.275 17.7890031 73.275 17.177L73.275 17.143C73.275 16.5876639 73.3826656 16.0833356 73.598 15.63 73.8133344 15.1766644 74.1108314 14.7885016 74.4905 14.4655 74.8701686 14.1424984 75.3234974 13.8931675 75.8505 13.7175 76.3775026 13.5418325 76.9583302 13.454 77.593 13.454 78.4996712 13.454 79.3298296 13.5871653 80.0835 13.8535 80.8371704 14.1198347 81.5313302 14.5079974 82.166 15.018L80.789 16.99C80.2449973 16.5933313 79.703836 16.2873344 79.1655 16.072 78.627164 15.8566656 78.0860027 15.749 77.542 15.749 76.9979973 15.749 76.5843347 15.8623322 76.301 16.089 76.0176652 16.3156678 75.876 16.5876651 75.876 16.905L75.876 16.939C75.876 17.1543344 75.9156663 17.3356659 75.995 17.483 76.0743337 17.6303341 76.215999 17.7663327 76.42 17.891 76.624001 18.0156673 76.9016649 18.1374994 77.253 18.2565 77.6043351 18.3755006 78.0519973 18.5029993 78.596 18.639 79.2306698 18.7976675 79.7916642 18.978999 80.279 19.183 80.7663358 19.387001 81.177165 19.6334986 81.5115 19.9225 81.845835 20.2115014 82.1008325 20.551498 82.2765 20.9425 82.4521675 21.333502 82.54 21.7953307 82.54 22.328L82.54 22.362C82.54 22.9740031 82.4295011 23.5151643 82.2085 23.9855 81.9874989 24.4558357 81.6758353 24.8524984 81.2735 25.1755 80.8711647 25.4985016 80.3923361 25.7449991 79.837 25.915 79.2816639 26.0850008 78.6753366 26.17 78.018 26.17zM84.912 26L84.912 23.892 88.159 23.892 88.159 16.191 85.303 17.245 84.691 15.12 88.89 13.539 90.641 13.539 90.641 23.892 93.548 23.892 93.548 26 84.912 26zM104.715 26.187C103.887663 26.187 103.145337 26.0708345 102.488 25.8385 101.830663 25.6061655 101.272502 25.2605023 100.8135 24.8015 100.354498 24.3424977 100.000335 23.7730034 99.751 23.093 99.5016654 22.4129966 99.377 21.6196712 99.377 20.713L99.377 13.624 101.995 13.624 101.995 20.628C101.995 21.6706719 102.238664 22.4583307 102.726 22.991 103.213336 23.5236693 103.887662 23.79 104.749 23.79 105.610338 23.79 106.287498 23.5350026 106.7805 23.025 107.273502 22.5149975 107.52 21.7500051 107.52 20.73L107.52 13.624 110.121 13.624 110.121 20.611C110.121 21.5516714 109.993501 22.3704965 109.7385 23.0675 109.483499 23.7645035 109.123669 24.3424977 108.659 24.8015 108.194331 25.2605023 107.62767 25.6061655 106.959 25.8385 106.29033 26.0708345 105.542337 26.187 104.715 26.187zM117.525 26.17C116.572995 26.17 115.649338 26.0085016 114.754 25.6855 113.858662 25.3624984 113.037004 24.86667 112.289 24.198L113.836 22.345C114.402669 22.8210024 114.98633 23.1949986 115.587 23.467 116.18767 23.7390014 116.850663 23.875 117.576 23.875 118.154003 23.875 118.610165 23.7616678 118.9445 23.535 119.278835 23.3083322 119.446 23.0023353 119.446 22.617L119.446 22.583C119.446 22.4016658 119.412 22.2401674 119.344 22.0985 119.276 21.9568326 119.148501 21.820834 118.9615 21.6905 118.774499 21.560166 118.513835 21.4383339 118.1795 21.325 117.845165 21.2116661 117.417336 21.0870007 116.896 20.951 116.26133 20.7923325 115.691836 20.6223342 115.1875 20.441 114.683164 20.2596658 114.252502 20.0273348 113.8955 19.744 113.538498 19.4606652 113.263668 19.115002 113.071 18.707 112.878332 18.298998 112.782 17.7890031 112.782 17.177L112.782 17.143C112.782 16.5876639 112.889666 16.0833356 113.105 15.63 113.320334 15.1766644 113.617831 14.7885016 113.9975 14.4655 114.377169 14.1424984 114.830497 13.8931675 115.3575 13.7175 115.884503 13.5418325 116.46533 13.454 117.1 13.454 118.006671 13.454 118.83683 13.5871653 119.5905 13.8535 120.34417 14.1198347 121.03833 14.5079974 121.673 15.018L120.296 16.99C119.751997 16.5933313 119.210836 16.2873344 118.6725 16.072 118.134164 15.8566656 117.593003 15.749 117.049 15.749 116.504997 15.749 116.091335 15.8623322 115.808 16.089 115.524665 16.3156678 115.383 16.5876651 115.383 16.905L115.383 16.939C115.383 17.1543344 115.422666 17.3356659 115.502 17.483 115.581334 17.6303341 115.722999 17.7663327 115.927 17.891 116.131001 18.0156673 116.408665 18.1374994 116.76 18.2565 117.111335 18.3755006 117.558997 18.5029993 118.103 18.639 118.73767 18.7976675 119.298664 18.978999 119.786 19.183 120.273336 19.387001 120.684165 19.6334986 121.0185 19.9225 121.352835 20.2115014 121.607832 20.551498 121.7835 20.9425 121.959168 21.333502 122.047 21.7953307 122.047 22.328L122.047 22.362C122.047 22.9740031 121.936501 23.5151643 121.7155 23.9855 121.494499 24.4558357 121.182835 24.8524984 120.7805 25.1755 120.378165 25.4985016 119.899336 25.7449991 119.344 25.915 118.788664 26.0850009 118.182337 26.17 117.525 26.17z"/>
    </g>
    <path fill="#F36335" fill-rule="nonzero" d="M232,16.5004462 C232,15.1217205 233.118351,14 234.5,14 C235.879864,14 237,15.1217205 237,16.5004462 C237,17.8791719 235.879864,19 234.5,19 C233.118351,19 232,17.8791719 232,16.5004462 Z M236.482328,16.5004462 C236.482328,15.3796181 235.619243,14.5166875 234.499107,14.5166875 C233.376294,14.5166875 232.514995,15.3787257 232.514995,16.5004462 C232.514995,17.6203819 233.376294,18.4833125 234.499107,18.4833125 C235.619243,18.4833125 236.482328,17.6203819 236.482328,16.5004462 Z M233.549447,15.2921649 L234.671367,15.2921649 C235.188147,15.2921649 235.619243,15.5509548 235.619243,16.0685347 C235.619243,16.4138854 235.447876,16.671783 235.102463,16.8449045 L235.704927,17.7069427 L235.01678,17.7069427 L234.5,16.9314653 L234.154588,16.9314653 L234.154588,17.7069427 L233.549447,17.7069427 L233.549447,15.2921649 Z M235.102463,16.0685347 C235.102463,15.8954132 234.931096,15.723184 234.671367,15.723184 L234.154588,15.723184 L234.154588,16.412993 L234.671367,16.412993 C234.931096,16.4138854 235.102463,16.2416563 235.102463,16.0685347 Z"/>
    <path fill="#F57147" d="M137.316517,25.9831388 C136.492509,25.9831388 135.753171,25.8679216 135.09848,25.6374838 C134.443788,25.407046 133.887874,25.0642046 133.430719,24.6089494 C132.973564,24.1536942 132.620826,23.588849 132.372495,22.9143969 C132.124164,22.2399447 132,21.4530957 132,20.5538262 L132,13.5226978 L134.607464,13.5226978 L134.607464,20.4695201 C134.607464,21.5036801 134.850147,22.2849087 135.335522,22.8132296 C135.820896,23.3415504 136.492509,23.6057069 137.35038,23.6057069 C138.208251,23.6057069 138.882686,23.3527911 139.373704,22.846952 C139.864723,22.3411129 140.110228,21.5823656 140.110228,20.5706874 L140.110228,13.5226978 L142.70076,13.5226978 L142.70076,20.4526589 C142.70076,21.385651 142.573775,22.1977916 142.3198,22.8891051 C142.065825,23.5804185 141.707443,24.1536942 141.244644,24.6089494 C140.781845,25.0642046 140.217465,25.407046 139.551486,25.6374838 C138.885507,25.8679216 138.140525,25.9831388 137.316517,25.9831388 Z M148.643746,25.9662776 C147.977767,25.9662776 147.294866,25.8538706 146.595024,25.6290532 C145.895182,25.4042358 145.234857,25.0501537 144.614029,24.5667964 L145.731513,22.8638132 C146.239463,23.2347619 146.75305,23.5157794 147.272287,23.7068742 C147.791525,23.897969 148.271249,23.9935149 148.711472,23.9935149 C149.117832,23.9935149 149.419776,23.9232605 149.617312,23.7827497 C149.814848,23.6422388 149.913614,23.4595774 149.913614,23.2347601 L149.913614,23.2010376 C149.913614,23.0549063 149.859998,22.9284484 149.752764,22.8216602 C149.64553,22.7148719 149.501613,22.619326 149.321009,22.5350195 C149.140405,22.4507129 148.928762,22.372028 148.686075,22.2989624 C148.443387,22.2258967 148.192238,22.150022 147.932619,22.0713359 C147.593986,21.9701681 147.255358,21.8521408 146.916724,21.7172503 C146.578091,21.5823599 146.273325,21.4109392 146.002419,21.2029831 C145.731512,20.9950271 145.511404,20.7336808 145.342087,20.4189364 C145.17277,20.1041921 145.088113,19.7220083 145.088113,19.2723735 L145.088113,19.2386511 C145.088113,18.7665346 145.178414,18.3478185 145.359019,17.9824903 C145.539623,17.617162 145.785129,17.3080428 146.095543,17.0551232 C146.405956,16.8022037 146.769982,16.6111118 147.18763,16.4818418 C147.605277,16.3525718 148.051138,16.2879377 148.525225,16.2879377 C149.123477,16.2879377 149.727364,16.3834837 150.336904,16.5745785 C150.946444,16.7656732 151.505181,17.0298297 152.013131,17.3670558 L151.031099,19.1374838 C150.557012,18.8677029 150.099864,18.6541296 149.659641,18.4967575 C149.219417,18.3393853 148.818707,18.2607004 148.457498,18.2607004 C148.118865,18.2607004 147.85925,18.3281446 147.678645,18.463035 C147.498041,18.5979254 147.40774,18.766536 147.40774,18.9688716 L147.40774,19.002594 C147.40774,19.1374845 147.461356,19.258322 147.56859,19.3651102 C147.675824,19.4718985 147.819741,19.5702546 148.000346,19.6601816 C148.18095,19.7501085 148.389771,19.8344138 148.626814,19.9130999 C148.863857,19.991786 149.112185,20.0760912 149.371804,20.1660182 C149.699149,20.267186 150.032134,20.3880235 150.370767,20.5285344 C150.7094,20.6690452 151.016988,20.8460863 151.293538,21.0596628 C151.570089,21.2732393 151.795841,21.5317754 151.970802,21.8352789 C152.145762,22.1387823 152.233241,22.5041051 152.233241,22.9312581 L152.233241,22.9649805 C152.233241,23.4820605 152.140118,23.9288784 151.95387,24.3054475 C151.767622,24.6820166 151.513651,24.993946 151.191949,25.2412451 C150.870247,25.4885443 150.492112,25.6712056 150.057533,25.7892348 C149.622953,25.9072639 149.151696,25.9662776 148.643746,25.9662776 Z M158.768832,26 C158.06899,26 157.419952,25.8819726 156.8217,25.6459144 C156.223448,25.4098561 155.70704,25.0782555 155.27246,24.6511025 C154.837881,24.2239494 154.496431,23.7153077 154.2481,23.1251621 C153.999768,22.5350165 153.875605,21.8802457 153.875605,21.1608301 L153.875605,21.1271077 C153.875605,20.4526555 153.988481,19.8203661 154.214236,19.2302205 C154.439992,18.6400749 154.758867,18.1258128 155.170871,17.6874189 C155.582875,17.249025 156.073886,16.9005633 156.643918,16.6420233 C157.213951,16.3834834 157.837592,16.2542153 158.514858,16.2542153 C159.293715,16.2542153 159.970972,16.3947241 160.546648,16.6757458 C161.122325,16.9567675 161.596404,17.3305208 161.968901,17.7970169 C162.341398,18.2635129 162.620766,18.8030665 162.807015,19.4156939 C162.993263,20.0283213 163.086386,20.666231 163.086386,21.3294423 C163.086386,21.4306101 163.083564,21.5373968 163.07792,21.6498054 C163.072276,21.7622141 163.06381,21.8802415 163.052522,22.0038911 L156.432274,22.0038911 C156.556439,22.6446206 156.827342,23.1279707 157.24499,23.4539559 C157.662637,23.7799411 158.181867,23.9429313 158.802695,23.9429313 C159.276782,23.9429313 159.691602,23.8670565 160.047167,23.7153048 C160.402732,23.5635531 160.766757,23.3134475 161.139254,22.9649805 L162.612301,24.2632944 C162.172078,24.8028561 161.635917,25.2271926 161.003801,25.5363165 C160.371685,25.8454404 159.626703,26 158.768832,26 Z M160.580511,20.4020752 C160.490209,19.7838274 160.272923,19.2808061 159.928645,18.8929961 C159.584368,18.5051861 159.113111,18.311284 158.514858,18.311284 C157.939182,18.311284 157.467924,18.4995658 157.101071,18.8761349 C156.734218,19.252704 156.500001,19.7613457 156.398411,20.4020752 L160.580511,20.4020752 Z M165.236697,16.4228275 L167.810297,16.4228275 L167.810297,18.3618677 C168.092492,17.6986564 168.473448,17.1731537 168.953179,16.7853437 C169.43291,16.3975337 170.073481,16.2204927 170.874914,16.2542153 L170.874914,18.9351492 L170.739461,18.9351492 C169.836439,18.9351492 169.122497,19.2105463 168.597616,19.7613489 C168.072734,20.3121515 167.810297,21.1608244 167.810297,22.307393 L167.810297,25.7976654 L165.236697,25.7976654 L165.236697,16.4228275 Z M178.426399,13.5226978 L183.421216,13.5226978 C184.154922,13.5226978 184.812425,13.6266743 185.393746,13.8346304 C185.975066,14.0425864 186.468899,14.3320345 186.875259,14.7029831 C187.281619,15.0739318 187.592028,15.5179395 187.806496,16.0350195 C188.020964,16.5520994 188.128196,17.1197548 188.128196,17.7380026 L188.128196,17.771725 C188.128196,18.4798998 187.998389,19.1009485 187.73877,19.6348898 C187.479151,20.168831 187.123591,20.6156489 186.67208,20.9753567 C186.220569,21.3350645 185.695695,21.6048413 185.097443,21.7846952 C184.499191,21.9645491 183.855797,22.0544747 183.167243,22.0544747 L181.016932,22.0544747 L181.016932,25.7976654 L178.426399,25.7976654 L178.426399,13.5226978 Z M183.2519,19.7444877 C183.963031,19.7444877 184.516123,19.5618263 184.911196,19.1964981 C185.306268,18.8311698 185.503801,18.3731113 185.503801,17.8223087 L185.503801,17.7885863 C185.503801,17.1590976 185.297802,16.6813678 184.885798,16.3553826 C184.473794,16.0293974 183.912236,15.8664073 183.201106,15.8664073 L181.016932,15.8664073 L181.016932,19.7444877 L183.2519,19.7444877 Z M194.629924,26 C193.907506,26 193.238715,25.8735421 192.623531,25.6206226 C192.008348,25.367703 191.475008,25.0248617 191.023497,24.5920882 C190.571986,24.1593147 190.219248,23.6478629 189.965273,23.0577173 C189.711298,22.4675716 189.584312,21.8352822 189.584312,21.1608301 L189.584312,21.1271077 C189.584312,20.4526555 189.711298,19.8203661 189.965273,19.2302205 C190.219248,18.6400749 190.574808,18.1258128 191.031963,17.6874189 C191.489118,17.249025 192.028101,16.9005633 192.648929,16.6420233 C193.269757,16.3834834 193.947013,16.2542153 194.680719,16.2542153 C195.403137,16.2542153 196.071927,16.3806732 196.687111,16.6335927 C197.302295,16.8865123 197.835635,17.2321638 198.287146,17.6705577 C198.738657,18.1089516 199.091395,18.6204035 199.34537,19.2049287 C199.599345,19.7894539 199.72633,20.4189331 199.72633,21.0933852 L199.72633,21.1271077 C199.72633,21.8015598 199.599345,22.4338492 199.34537,23.0239948 C199.091395,23.6141404 198.735835,24.1312127 198.27868,24.575227 C197.821525,25.0192413 197.282542,25.367703 196.661714,25.6206226 C196.040886,25.8735421 195.36363,26 194.629924,26 Z M194.680719,23.8080415 C195.064503,23.8080415 195.411597,23.7377871 195.722011,23.5972763 C196.032425,23.4567654 196.297684,23.2656735 196.517795,23.0239948 C196.737907,22.7823161 196.904399,22.5012986 197.017277,22.1809339 C197.130155,21.8605691 197.186593,21.5205379 197.186593,21.1608301 L197.186593,21.1271077 C197.186593,20.7673998 197.124511,20.4273687 197.000346,20.1070039 C196.87618,19.7866391 196.701222,19.5028114 196.475466,19.2555123 C196.249711,19.0082132 195.98163,18.8143111 195.671216,18.6738003 C195.360802,18.5332894 195.013708,18.463035 194.629924,18.463035 C194.234852,18.463035 193.884936,18.5332894 193.580166,18.6738003 C193.275396,18.8143111 193.012959,19.0025929 192.792847,19.2386511 C192.572736,19.4747094 192.406243,19.7529167 192.293366,20.0732815 C192.180488,20.3936462 192.12405,20.7336774 192.12405,21.0933852 L192.12405,21.1271077 C192.12405,21.4868155 192.186132,21.8296568 192.310297,22.155642 C192.434463,22.4816272 192.609421,22.7654549 192.835176,23.0071336 C193.060932,23.2488123 193.329012,23.4427144 193.639426,23.5888457 C193.94984,23.734977 194.296934,23.8080415 194.680719,23.8080415 Z M201.842778,16.4228275 L204.416379,16.4228275 L204.416379,18.3618677 C204.698573,17.6986564 205.07953,17.1731537 205.559261,16.7853437 C206.038991,16.3975337 206.679563,16.2204927 207.480995,16.2542153 L207.480995,18.9351492 L207.345543,18.9351492 C206.44252,18.9351492 205.728579,19.2105463 205.203697,19.7613489 C204.678816,20.3121515 204.416379,21.1608244 204.416379,22.307393 L204.416379,25.7976654 L201.842778,25.7976654 L201.842778,16.4228275 Z M212.509675,25.9494163 C212.103315,25.9494163 211.730824,25.9044535 211.392191,25.8145266 C211.053557,25.7245996 210.765723,25.5728502 210.52868,25.3592737 C210.291637,25.1456972 210.105391,24.8590593 209.969938,24.4993515 C209.834484,24.1396437 209.766759,23.6900157 209.766759,23.150454 L209.766759,18.614786 L208.632343,18.614786 L208.632343,16.4228275 L209.766759,16.4228275 L209.766759,13.9948119 L212.340359,13.9948119 L212.340359,16.4228275 L214.609191,16.4228275 L214.609191,18.614786 L212.340359,18.614786 L212.340359,22.7289235 C212.340359,23.369653 212.645125,23.690013 213.254665,23.690013 C213.728752,23.690013 214.168968,23.5832263 214.575328,23.3696498 L214.575328,25.4267185 C214.293134,25.5840907 213.988368,25.7105486 213.661023,25.806096 C213.333677,25.9016434 212.949899,25.9494163 212.509675,25.9494163 Z M219.451624,25.9831388 C219.011401,25.9831388 218.590937,25.9213149 218.190221,25.7976654 C217.789505,25.6740158 217.442411,25.4885443 217.148929,25.2412451 C216.855447,24.993946 216.621229,24.6904471 216.446268,24.3307393 C216.271308,23.9710315 216.183829,23.5607459 216.183829,23.0998703 L216.183829,23.0661479 C216.183829,22.5603088 216.276951,22.1191113 216.4632,21.7425422 C216.649448,21.365973 216.911885,21.0540436 217.250518,20.8067445 C217.589152,20.5594454 217.989862,20.376784 218.452661,20.2587549 C218.91546,20.1407257 219.429046,20.0817121 219.993435,20.0817121 C220.490097,20.0817121 220.921848,20.1154342 221.288701,20.1828794 C221.655554,20.2503246 222.008291,20.3402502 222.346925,20.4526589 L222.346925,20.2840467 C222.346925,19.7107624 222.171967,19.2723751 221.822046,18.9688716 C221.472124,18.6653681 220.952894,18.5136187 220.26434,18.5136187 C219.75639,18.5136187 219.299242,18.5613917 218.892882,18.656939 C218.486522,18.7524864 218.06888,18.8789443 217.639945,19.0363165 L216.996545,17.080415 C217.515782,16.8555977 218.054766,16.6729363 218.613511,16.5324254 C219.172256,16.3919146 219.84669,16.3216602 220.636835,16.3216602 C221.359253,16.3216602 221.982893,16.414396 222.507775,16.5998703 C223.032656,16.7853446 223.464407,17.0410706 223.803041,17.3670558 C224.152962,17.7155227 224.409755,18.1398592 224.573428,18.6400778 C224.737101,19.1402965 224.818936,19.7051417 224.818936,20.3346304 L224.818936,25.7976654 L222.329993,25.7976654 L222.329993,24.7522698 C222.002648,25.1119776 221.607581,25.407046 221.144782,25.6374838 C220.681983,25.8679216 220.117603,25.9831388 219.451624,25.9831388 Z M220.213545,24.1958495 C220.856949,24.1958495 221.379001,24.0356696 221.779717,23.7153048 C222.180433,23.39494 222.380788,22.9818443 222.380788,22.4760052 L222.380788,21.9701686 C222.143744,21.8690008 221.872842,21.7846955 221.568072,21.7172503 C221.263302,21.6498051 220.935961,21.616083 220.58604,21.616083 C219.987788,21.616083 219.519352,21.7341104 219.180719,21.9701686 C218.842085,22.2062269 218.672771,22.5378275 218.672771,22.9649805 L218.672771,22.998703 C218.672771,23.3808925 218.816688,23.6759609 219.104527,23.883917 C219.392365,24.0918731 219.762034,24.1958495 220.213545,24.1958495 Z M227.443331,13 L230,13 L230,25.7976654 L227.443331,25.7976654 L227.443331,13 Z"/>
  </g>
</svg>
